<svg width="640" height="480" xmlns="http://www.w3.org/2000/svg" xmlns:svg="http://www.w3.org/2000/svg">
 <!-- Created with SVG-edit - https://github.com/SVG-Edit/svgedit-->
 <g class="layer">
  <title>Layer 1</title>
  <text fill="#000000" font-family="Serif" font-size="24" id="svg_4" stroke="#000000" stroke-width="0" text-anchor="middle" transform="matrix(1 0 0 1 0 0) matrix(-23.8145 0.149614 -0.132379 -21.0712 7673.4 7850.05)" x="306.83" xml:space="preserve" y="371.61">L</text>
  <circle cx="157.5" cy="224" fill="#ffff00" id="svg_1" r="44.16" stroke="#000000"/>
  <line fill="none" id="svg_2" stroke="#000000" transform="rotate(-2.40597 155.5 309)" x1="157" x2="154" y1="268.5" y2="349.5"/>
  <line fill="none" id="svg_3" stroke="#000000" transform="rotate(-29.5604 115 282)" x1="75" x2="155" y1="259.5" y2="304.5"/>
  <line fill="none" id="svg_6" stroke="#000000" x1="157" x2="229" y1="280.5" y2="278.5"/>
  <line fill="none" id="svg_7" stroke="#000000" x1="155" x2="82" y1="346.5" y2="418.5"/>
  <line fill="none" id="svg_8" stroke="#000000" x1="157" x2="218" y1="348.5" y2="414.5"/>
  <line fill="none" id="svg_9" stroke="#000000" x1="158" x2="158" y1="150.5" y2="180.5"/>
  <path d="m212.42,227.22c0,-0.82 0.99,-1.48 2.21,-1.48c1.22,0 2.21,0.66 2.21,1.48c0,0.82 -0.99,1.48 -2.21,1.48c-1.22,0 -2.21,-0.66 -2.21,-1.48zm4.53,-10.67c0,-2.05 2.47,-3.71 5.53,-3.71c3.05,0 5.53,1.66 5.53,3.71c0,2.05 -2.47,3.71 -5.53,3.71c-3.05,0 -5.53,-1.66 -5.53,-3.71zm10.51,-16.17c0,-5.67 8.61,-10.26 19.24,-10.26c10.63,0 19.24,4.59 19.24,10.26c0,5.67 -8.61,10.26 -19.24,10.26c-10.63,0 -19.24,-4.59 -19.24,-10.26zm-16.51,-46.45c0,-24.44 29.5,-44.23 65.91,-44.23c36.41,0 65.91,19.8 65.91,44.23c0,24.44 -29.5,44.23 -65.91,44.23c-36.41,0 -65.91,-19.8 -65.91,-44.23z" fill="none" id="svg_10" stroke="#000000"/>
  <text fill="#000000" font-family="Serif" font-size="24" id="svg_11" stroke="#000000" stroke-width="0" text-anchor="middle" x="275" xml:space="preserve" y="159.5">You lose</text>
 </g>
</svg>